<?xml version="1.0" standalone="no"?>
<!DOCTYPE svg PUBLIC "-//W3C//DTD SVG 20010904//EN"
 "http://www.w3.org/TR/2001/REC-SVG-20010904/DTD/svg10.dtd">
<svg version="1.0" xmlns="http://www.w3.org/2000/svg"
 width="512.000000pt" height="512.000000pt" viewBox="0 0 512.000000 512.000000"
 preserveAspectRatio="xMidYMid meet">
<g transform="translate(0.000000,512.000000) scale(0.100000,-0.100000)"
fill="#000000" stroke="none">
<path d="M2390 5110 l-2125 -5 -55 -26 c-80 -37 -125 -81 -162 -157 l-33 -67
-7 -2255 c-4 -1283 -3 -2280 2 -2313 17 -112 89 -204 199 -256 l56 -26 2270 3
c1401 2 2287 7 2315 13 103 23 182 88 228 189 22 47 26 72 29 170 8 338 9
4411 1 4460 -13 71 -40 122 -93 175 -84 84 -163 106 -369 103 -72 -2 -1087 -5
-2256 -8z m330 -2338 c0 -644 -1 -683 -20 -756 -26 -102 -61 -164 -130 -230
-101 -96 -239 -146 -404 -146 -331 1 -549 189 -573 493 l-6 77 184 -2 184 -3
7 -59 c15 -115 84 -176 198 -176 65 0 102 14 137 52 54 57 53 44 53 763 l0
665 185 0 185 0 0 -678z m687 -735 c145 -76 139 -303 -10 -373 -154 -71 -326
27 -327 187 0 61 40 139 89 174 65 44 176 50 248 12z"/>
</g>
</svg>
