<?xml version="1.0" standalone="no"?>
<!DOCTYPE svg PUBLIC "-//W3C//DTD SVG 20010904//EN"
 "http://www.w3.org/TR/2001/REC-SVG-20010904/DTD/svg10.dtd">
<svg version="1.0" xmlns="http://www.w3.org/2000/svg"
 width="620.000000pt" height="620.000000pt" viewBox="0 0 620.000000 620.000000"
 preserveAspectRatio="xMidYMid meet">
<metadata>
Created by potrace 1.14, written by Peter Selinger 2001-2017
</metadata>
<g transform="translate(0.000000,620.000000) scale(0.100000,-0.100000)"
fill="#000000" stroke="none">
<path d="M3685 5537 c-98 -63 -180 -118 -182 -123 -2 -8 36 -33 187 -119 228
-132 730 -438 745 -455 20 -22 20 -38 22 -781 1 -418 -2 -770 -6 -782 -6 -14
-60 -54 -147 -106 -77 -46 -281 -169 -454 -274 -173 -105 -320 -195 -327 -201
-9 -8 32 -36 165 -110 140 -79 185 -100 217 -100 42 -1 43 0 625 356 294 180
315 194 327 219 10 20 13 259 15 1011 3 956 2 987 -16 1007 -19 21 -94 67
-526 321 -403 238 -425 250 -445 250 -12 0 -101 -51 -200 -113z"/>
<path d="M2244 5610 c-19 -7 -237 -130 -599 -335 -61 -35 -128 -73 -149 -84
-145 -82 -183 -105 -199 -119 -19 -17 -19 -21 -3 -444 l1 -27 60 33 c113 63
164 91 350 196 22 13 67 37 100 55 33 18 140 78 238 133 97 55 191 105 208
111 41 14 57 7 287 -127 103 -60 311 -180 462 -267 151 -87 298 -171 325 -188
28 -17 70 -41 95 -55 114 -63 186 -108 203 -126 10 -12 17 -36 18 -65 1 -25 2
-98 4 -161 8 -369 17 -848 16 -867 -1 -20 8 -17 87 35 223 147 267 180 279
209 10 22 12 150 9 552 l-3 524 -36 33 c-20 19 -38 34 -40 34 -3 0 -245 140
-538 311 -294 172 -559 325 -589 342 -30 16 -59 33 -65 37 -11 8 -350 206
-422 247 -44 24 -65 27 -99 13z"/>
<path d="M2236 4663 c-10 -3 -156 -84 -325 -180 -168 -97 -319 -183 -336 -193
-34 -19 -508 -290 -565 -323 -21 -12 -137 -78 -257 -147 -121 -69 -228 -136
-238 -149 -17 -22 -19 -49 -21 -250 -7 -595 -7 -868 0 -887 4 -13 32 -35 69
-54 34 -18 85 -45 112 -60 102 -56 216 -112 220 -108 2 2 7 233 10 513 5 528
8 579 28 606 13 17 62 49 147 96 58 32 421 242 474 274 17 10 40 23 51 29 11
5 41 22 67 37 48 29 209 123 263 153 163 93 279 161 289 169 37 31 94 8 391
-159 114 -64 602 -330 615 -335 14 -5 15 20 15 204 0 194 -2 212 -21 237 -11
15 -33 34 -49 43 -185 100 -239 130 -290 158 -33 19 -73 40 -90 49 -16 8 -48
25 -70 37 -22 13 -74 41 -115 64 -345 187 -339 184 -374 176z"/>
<path d="M5299 3878 c0 -18 -2 -181 -5 -363 -9 -669 -10 -699 -25 -723 -8 -13
-54 -47 -104 -76 -129 -75 -423 -245 -470 -272 -22 -12 -80 -45 -130 -74 -49
-29 -164 -95 -255 -148 -91 -52 -210 -121 -266 -153 -55 -33 -110 -59 -122
-59 -12 0 -83 34 -159 76 -221 122 -224 124 -522 288 -156 86 -286 154 -289
151 -3 -2 -5 -28 -4 -57 0 -29 1 -120 2 -203 1 -128 4 -155 21 -181 14 -24 72
-60 246 -155 126 -68 246 -133 268 -146 22 -12 54 -29 70 -37 29 -15 108 -58
230 -126 113 -62 137 -72 169 -67 17 3 225 116 461 252 237 136 448 257 470
269 22 13 101 58 175 101 74 43 160 92 190 109 272 153 425 245 437 263 13 19
16 110 20 572 3 359 1 556 -6 568 -5 11 -43 36 -83 57 -40 21 -128 67 -195
103 l-123 64 -1 -33z"/>
<path d="M2230 3733 c-13 -5 -229 -136 -590 -358 -47 -29 -135 -83 -197 -121
-69 -42 -116 -78 -124 -93 -16 -35 -25 -1963 -9 -2001 11 -27 32 -41 315 -207
94 -55 256 -151 360 -213 271 -161 293 -173 318 -166 25 6 371 222 374 234 2
4 -19 19 -45 34 -26 15 -69 41 -97 58 -27 17 -59 35 -70 40 -29 15 -318 188
-330 198 -5 4 -17 11 -25 15 -8 4 -32 17 -52 29 -20 13 -74 45 -120 72 -155
90 -197 121 -209 149 -17 40 -17 1513 -1 1543 10 18 115 90 227 154 17 10 158
95 315 190 157 95 311 189 343 207 32 19 57 36 55 38 -2 1 -85 48 -185 104
-174 97 -210 110 -253 94z"/>
<path d="M2420 2892 c-52 -32 -132 -80 -178 -108 -117 -70 -115 -61 -108 -357
21 -857 18 -816 53 -847 16 -14 116 -76 223 -139 107 -62 202 -116 210 -121
15 -10 230 -135 760 -442 157 -91 301 -175 320 -186 129 -76 188 -105 212
-104 16 0 76 28 134 61 58 34 108 61 111 61 3 0 17 8 31 18 15 11 59 36 97 57
39 21 117 65 175 98 58 33 130 73 160 90 30 17 87 49 125 71 39 23 82 47 97
55 15 8 37 23 48 34 20 18 21 25 14 190 -4 95 -8 195 -9 222 -1 38 -5 49 -16
47 -13 -3 -131 -68 -714 -395 -200 -111 -235 -128 -265 -124 -19 3 -86 35
-149 71 -62 36 -117 66 -122 66 -5 0 -9 5 -9 10 0 6 -4 10 -9 10 -5 0 -36 15
-68 34 -32 19 -247 143 -478 276 -487 281 -503 290 -511 310 -4 8 -8 78 -10
155 -9 415 -16 799 -17 868 -1 42 -3 77 -6 77 -4 0 -49 -26 -101 -58z"/>
</g>
</svg>
